<svg width="14" height="14" viewBox="0 0 14 14" fill="none" xmlns="http://www.w3.org/2000/svg">
<g clip-path="url(#clip0_65_86)">
<path d="M14 12.25H-7.62939e-06V3.79167C-7.62939e-06 3.25018 0.215096 2.73088 0.597983 2.34799C0.980869 1.9651 1.50018 1.75 2.04166 1.75H11.9583C12.4998 1.75 13.0191 1.9651 13.402 2.34799C13.7849 2.73088 14 3.25018 14 3.79167V12.25ZM1.74999 10.5H12.25V3.79167C12.25 3.71431 12.2193 3.64013 12.1646 3.58543C12.1099 3.53073 12.0357 3.5 11.9583 3.5H2.04166C1.9643 3.5 1.89012 3.53073 1.83542 3.58543C1.78072 3.64013 1.74999 3.71431 1.74999 3.79167V10.5ZM6.99999 8.75C6.65387 8.75 6.31553 8.64736 6.02774 8.45507C5.73996 8.26278 5.51566 7.98947 5.3832 7.6697C5.25075 7.34993 5.21609 6.99806 5.28362 6.65859C5.35114 6.31913 5.51781 6.0073 5.76256 5.76256C6.0073 5.51782 6.31912 5.35115 6.65858 5.28363C6.99805 5.2161 7.34992 5.25076 7.66969 5.38321C7.98946 5.51566 8.26277 5.73997 8.45506 6.02775C8.64736 6.31554 8.74999 6.65388 8.74999 7C8.74999 7.46413 8.56562 7.90925 8.23743 8.23744C7.90924 8.56563 7.46412 8.75 6.99999 8.75ZM3.20833 4.08333C3.03527 4.08333 2.86609 4.13465 2.7222 4.2308C2.57831 4.32694 2.46616 4.4636 2.39993 4.62349C2.3337 4.78337 2.31638 4.9593 2.35014 5.12904C2.3839 5.29877 2.46724 5.45468 2.58961 5.57705C2.71198 5.69942 2.86789 5.78276 3.03762 5.81652C3.20736 5.85028 3.38329 5.83295 3.54317 5.76673C3.70306 5.7005 3.83972 5.58835 3.93586 5.44446C4.03201 5.30056 4.08333 5.13139 4.08333 4.95833C4.08333 4.72627 3.99114 4.50371 3.82704 4.33961C3.66295 4.17552 3.44039 4.08333 3.20833 4.08333ZM9.91666 4.95833C9.91666 5.13139 9.96798 5.30056 10.0641 5.44446C10.1603 5.58835 10.2969 5.7005 10.4568 5.76673C10.6167 5.83295 10.7926 5.85028 10.9624 5.81652C11.1321 5.78276 11.288 5.69942 11.4104 5.57705C11.5327 5.45468 11.6161 5.29877 11.6498 5.12904C11.6836 4.9593 11.6663 4.78337 11.6001 4.62349C11.5338 4.4636 11.4217 4.32694 11.2778 4.2308C11.1339 4.13465 10.9647 4.08333 10.7917 4.08333C10.5596 4.08333 10.337 4.17552 10.1729 4.33961C10.0088 4.50371 9.91666 4.72627 9.91666 4.95833ZM3.20833 8.16667C3.03527 8.16667 2.86609 8.21798 2.7222 8.31413C2.57831 8.41028 2.46616 8.54693 2.39993 8.70682C2.3337 8.8667 2.31638 9.04264 2.35014 9.21237C2.3839 9.3821 2.46724 9.53801 2.58961 9.66038C2.71198 9.78275 2.86789 9.86609 3.03762 9.89985C3.20736 9.93362 3.38329 9.91629 3.54317 9.85006C3.70306 9.78383 3.83972 9.67168 3.93586 9.52779C4.03201 9.3839 4.08333 9.21473 4.08333 9.04167C4.08333 8.8096 3.99114 8.58704 3.82704 8.42295C3.66295 8.25885 3.44039 8.16667 3.20833 8.16667ZM9.91666 9.04167C9.91666 9.21473 9.96798 9.3839 10.0641 9.52779C10.1603 9.67168 10.2969 9.78383 10.4568 9.85006C10.6167 9.91629 10.7926 9.93362 10.9624 9.89985C11.1321 9.86609 11.288 9.78275 11.4104 9.66038C11.5327 9.53801 11.6161 9.3821 11.6498 9.21237C11.6836 9.04264 11.6663 8.8667 11.6001 8.70682C11.5338 8.54693 11.4217 8.41028 11.2778 8.31413C11.1339 8.21798 10.9647 8.16667 10.7917 8.16667C10.5596 8.16667 10.337 8.25885 10.1729 8.42295C10.0088 8.58704 9.91666 8.8096 9.91666 9.04167Z" fill="#E84545"/>
</g>
<defs>
<clipPath id="clip0_65_86">
<rect width="14" height="14" fill="white"/>
</clipPath>
</defs>
</svg>
