<svg width="16" height="16" viewBox="0 0 16 16" fill="none" xmlns="http://www.w3.org/2000/svg">
<path d="M8.00013 0.00463867C6.6811 0.00478756 5.39175 0.396218 4.29525 1.1294C3.19876 1.86257 2.3444 2.90454 1.84029 4.12345C1.33619 5.34235 1.20499 6.6834 1.46331 7.97689C1.72163 9.27038 2.35785 10.4582 3.29146 11.39L6.64146 14.6666H3.33346V16H12.6668V14.6666H9.3588L12.7141 11.3846C13.6462 10.4522 14.281 9.26442 14.5381 7.97134C14.7951 6.67826 14.6631 5.33799 14.1585 4.11996C13.654 2.90194 12.7996 1.86086 11.7034 1.12835C10.6073 0.395838 9.31852 0.00478836 8.00013 0.00463867ZM11.7768 10.4366L8.00013 14.1333L4.2288 10.442C3.48317 9.6963 2.97533 8.74633 2.76944 7.71213C2.56356 6.67792 2.66887 5.6059 3.07208 4.63153C3.47529 3.65716 4.15829 2.82419 5.03477 2.23788C5.91125 1.65157 6.94186 1.33825 7.99637 1.3375C9.05087 1.33676 10.0819 1.64863 10.9592 2.23369C11.8365 2.81876 12.5207 3.65077 12.9253 4.62457C13.3299 5.59836 13.4367 6.67024 13.2323 7.70474C13.0279 8.73923 12.5214 9.68991 11.7768 10.4366ZM4.6668 4.25463V8.41196L8.00013 10.0786L11.3335 8.41196V4.25463L8.00013 2.58797L4.6668 4.25463ZM10.0001 7.58796L8.00013 8.58796L6.00013 7.58796V5.07863L6.0788 5.0393L8.00013 5.99997L9.92146 5.0393L10.0001 5.07863V7.58796Z" fill="#374957"/>
</svg>
