<svg width="16" height="16" viewBox="0 0 16 16" fill="none" xmlns="http://www.w3.org/2000/svg">
<g clip-path="url(#clip0_37_2168)">
<path d="M3.33344 12.6665H6.2761L15.3714 3.57116C15.761 3.1806 15.9798 2.65147 15.9798 2.09982C15.9798 1.54817 15.761 1.01904 15.3714 0.628491C14.9752 0.249754 14.4482 0.0383911 13.9001 0.0383911C13.352 0.0383911 12.825 0.249754 12.4288 0.628491L3.33344 9.72383V12.6665ZM4.66677 10.2758L13.3714 1.57116C13.5138 1.43513 13.7032 1.35922 13.9001 1.35922C14.097 1.35922 14.2864 1.43513 14.4288 1.57116C14.5687 1.7115 14.6473 1.90162 14.6473 2.09982C14.6473 2.29803 14.5687 2.48815 14.4288 2.62849L5.7241 11.3332H4.66677V10.2758Z" fill="#374957"/>
<path d="M15.7473 5.08133L14.6667 6.162V10.6667H10.6667V14.6667H1.33333V2C1.33333 1.82319 1.40357 1.65362 1.5286 1.5286C1.65362 1.40357 1.82319 1.33333 2 1.33333H9.83867L10.9193 0.252667C11.0167 0.162416 11.1193 0.0780441 11.2267 0L2 0C1.46957 0 0.960859 0.210714 0.585786 0.585786C0.210714 0.960859 0 1.46957 0 2L0 16H12.276L16 12.276V4.774C15.9218 4.88124 15.8374 4.98386 15.7473 5.08133V5.08133ZM12 14.3907V12H14.3907L12 14.3907Z" fill="#374957"/>
</g>
<defs>
<clipPath id="clip0_37_2168">
<rect width="16" height="16" fill="white"/>
</clipPath>
</defs>
</svg>
