<svg width="10" height="11" viewBox="0 0 10 11" fill="none" xmlns="http://www.w3.org/2000/svg">
<g clip-path="url(#clip0_65_366)">
<path d="M2.9166 11C2.86176 11.0003 2.8074 10.9888 2.75663 10.9659C2.70587 10.9431 2.6597 10.9095 2.62076 10.8671C2.58171 10.8244 2.55071 10.7738 2.52956 10.7179C2.5084 10.662 2.49751 10.6021 2.49751 10.5416C2.49751 10.4811 2.5084 10.4212 2.52956 10.3654C2.55071 10.3095 2.58171 10.2588 2.62076 10.2162L6.02493 6.47164C6.25901 6.21383 6.3905 5.86435 6.3905 5.49998C6.3905 5.1356 6.25901 4.78612 6.02493 4.52831L2.62076 0.783732C2.5423 0.697427 2.49822 0.580371 2.49822 0.458316C2.49822 0.336261 2.5423 0.219206 2.62076 0.1329C2.69922 0.046594 2.80564 -0.00189209 2.9166 -0.00189209C3.02755 -0.00189209 3.13397 0.046594 3.21243 0.1329L6.6166 3.87748C6.81061 4.09035 6.96454 4.34324 7.06956 4.62166C7.17459 4.90007 7.22865 5.19854 7.22865 5.49998C7.22865 5.80141 7.17459 6.09988 7.06956 6.3783C6.96454 6.65671 6.81061 6.9096 6.6166 7.12247L3.21243 10.8671C3.1735 10.9095 3.12732 10.9431 3.07656 10.9659C3.02579 10.9888 2.97143 11.0003 2.9166 11Z" fill="#374957"/>
</g>
<defs>
<clipPath id="clip0_65_366">
<rect width="10" height="11" fill="white"/>
</clipPath>
</defs>
</svg>
