<svg width="16" height="16" viewBox="0 0 16 16" fill="none" xmlns="http://www.w3.org/2000/svg">
<g clip-path="url(#clip0_69_513)">
<path d="M13.4248 16C13.1781 15.9993 12.9341 15.9498 12.7067 15.8542C12.4793 15.7587 12.2732 15.619 12.1001 15.4433L8.00009 11.3673L3.90009 15.446C3.63677 15.7132 3.29908 15.8948 2.93103 15.9672C2.56298 16.0396 2.18165 15.9995 1.83675 15.852C1.48843 15.7119 1.19045 15.47 0.981726 15.1579C0.773001 14.8459 0.663232 14.4781 0.666754 14.1027V3.33333C0.666754 2.44928 1.01794 1.60143 1.64306 0.976311C2.26819 0.351189 3.11603 0 4.00009 0L12.0001 0C12.4378 0 12.8713 0.0862192 13.2757 0.253735C13.6801 0.421251 14.0476 0.666782 14.3571 0.976311C14.6666 1.28584 14.9122 1.6533 15.0797 2.05772C15.2472 2.46214 15.3334 2.89559 15.3334 3.33333V14.1027C15.3372 14.4778 15.2278 14.8453 15.0196 15.1574C14.8113 15.4694 14.5139 15.7115 14.1661 15.852C13.9313 15.9502 13.6793 16.0005 13.4248 16ZM4.00009 1.33333C3.46965 1.33333 2.96095 1.54405 2.58587 1.91912C2.2108 2.29419 2.00009 2.8029 2.00009 3.33333V14.1027C1.99985 14.2138 2.03253 14.3224 2.09402 14.4149C2.15551 14.5075 2.24304 14.5797 2.34555 14.6225C2.44806 14.6653 2.56096 14.6768 2.66998 14.6554C2.779 14.6341 2.87926 14.5809 2.95809 14.5027V14.5027L7.53342 9.95533C7.65833 9.83117 7.8273 9.76147 8.00342 9.76147C8.17955 9.76147 8.34851 9.83117 8.47342 9.95533L13.0434 14.5013C13.1222 14.5796 13.2225 14.6328 13.3315 14.6541C13.4406 14.6754 13.5534 14.664 13.656 14.6212C13.7585 14.5784 13.846 14.5061 13.9075 14.4136C13.969 14.3211 14.0017 14.2124 14.0014 14.1013V3.33333C14.0014 2.8029 13.7907 2.29419 13.4156 1.91912C13.0406 1.54405 12.5319 1.33333 12.0014 1.33333H4.00009Z" fill="#B11200"/>
</g>
<defs>
<clipPath id="clip0_69_513">
<rect width="16" height="16" fill="white"/>
</clipPath>
</defs>
</svg>
