<svg width="14" height="14" viewBox="0 0 14 14" fill="none" xmlns="http://www.w3.org/2000/svg">
<g clip-path="url(#clip0_65_35)">
<path d="M11.0833 0H2.91667C2.1434 0.00092625 1.40208 0.308514 0.855295 0.855295C0.308514 1.40208 0.00092625 2.1434 0 2.91667L0 11.0833C0.00092625 11.8566 0.308514 12.5979 0.855295 13.1447C1.40208 13.6915 2.1434 13.9991 2.91667 14H11.0833C11.8566 13.9991 12.5979 13.6915 13.1447 13.1447C13.6915 12.5979 13.9991 11.8566 14 11.0833V2.91667C13.9991 2.1434 13.6915 1.40208 13.1447 0.855295C12.5979 0.308514 11.8566 0.00092625 11.0833 0V0ZM12.8333 11.0833C12.8333 11.5475 12.649 11.9926 12.3208 12.3208C11.9926 12.649 11.5475 12.8333 11.0833 12.8333H2.91667C2.45254 12.8333 2.00742 12.649 1.67923 12.3208C1.35104 11.9926 1.16667 11.5475 1.16667 11.0833V2.91667C1.16667 2.45254 1.35104 2.00742 1.67923 1.67923C2.00742 1.35104 2.45254 1.16667 2.91667 1.16667H11.0833C11.5475 1.16667 11.9926 1.35104 12.3208 1.67923C12.649 2.00742 12.8333 2.45254 12.8333 2.91667V11.0833Z" fill="#5F8D4E"/>
<path d="M5.44415 9.28611L3.15807 7.00003C3.04868 6.89067 2.90033 6.82924 2.74565 6.82924C2.59097 6.82924 2.44263 6.89067 2.33324 7.00003C2.22388 7.10942 2.16245 7.25776 2.16245 7.41244C2.16245 7.56712 2.22388 7.71547 2.33324 7.82486L4.61932 10.1109C4.72766 10.2193 4.8563 10.3053 4.99787 10.364C5.13945 10.4226 5.2912 10.4528 5.44445 10.4528C5.59769 10.4528 5.74944 10.4226 5.89102 10.364C6.0326 10.3053 6.16123 10.2193 6.26957 10.1109L11.6666 4.71395C11.7759 4.60456 11.8374 4.45621 11.8374 4.30153C11.8374 4.14685 11.7759 3.99851 11.6666 3.88911C11.5572 3.77976 11.4088 3.71832 11.2542 3.71832C11.0995 3.71832 10.9511 3.77976 10.8417 3.88911L5.44415 9.28611Z" fill="#5F8D4E"/>
</g>
<defs>
<clipPath id="clip0_65_35">
<rect width="14" height="14" fill="white"/>
</clipPath>
</defs>
</svg>
